<svg xmlns="http://www.w3.org/2000/svg" viewBox="0 0 128 128"><rect width="128" height="128" rx="24" fill="#fff"/><g fill="#32BCAD"><path d="M64 8c7.2 0 14 2.8 19.1 7.9l25.8 25.8a15.8 15.8 0 0 1 0 22.4L83.1 89.9A27 27 0 0 1 64 97.8a27 27 0 0 1-19.1-7.9L19.1 64.1a15.8 15.8 0 0 1 0-22.4l25.8-25.8A27 27 0 0 1 64 8Z"/><path fill="#fff" d="m42.9 41.4 10.3-10.3a15 15 0 0 1 21.2 0l10 10-7.8 7.8-9.1-9.1a5 5 0 0 0-7.1 0l-9.7 9.7-7.8-8.1Zm38.2 45.2L70.8 96.9a15 15 0 0 1-21.2 0l-10-10 7.8-7.8 9.1 9.1a5 5 0 0 0 7.1 0l9.7-9.7 7.8 8.1Z"/></g></svg>